#N canvas 702 90 673 443 10;
#X obj 104 67 random 2000;
#X obj 104 38 metro 500;
#X obj 104 12 tgl 15 0 empty empty empty 17 7 0 10 -262144 -1 -1 1
1;
#X obj 105 160 osc~;
#X obj 104 196 dac~;
#X obj 104 131 + 400;
#X floatatom 195 128 5 0 0 0 - - -;
#X floatatom 104 105 5 0 0 0 - - -;
#X text 2 66 Números enteros;
#X text 233 126 Números decimal;
#X floatatom 196 177 5 0 0 0 - - -;
#X obj 194 66 random 10000;
#X obj 196 152 + 50;
#X obj 195 95 / 10;
#X obj 196 200 s tiempo;
#X obj 155 12 r tiempo;
#X connect 0 0 7 0;
#X connect 1 0 0 0;
#X connect 1 0 11 0;
#X connect 2 0 1 0;
#X connect 3 0 4 0;
#X connect 3 0 4 1;
#X connect 5 0 3 0;
#X connect 6 0 12 0;
#X connect 7 0 5 0;
#X connect 10 0 14 0;
#X connect 11 0 13 0;
#X connect 12 0 10 0;
#X connect 13 0 6 0;
#X connect 15 0 1 1;
