#N canvas 496 163 839 443 10;
#X floatatom -85 65 5 0 0 0 - - -;
#X floatatom -85 120 5 0 0 0 - - -;
#X floatatom 144 66 5 0 0 0 - - -;
#X floatatom 144 121 5 0 0 0 - - -;
#X floatatom 286 65 5 0 0 0 - - -;
#X floatatom 286 121 5 0 0 0 - - -;
#X obj -85 91 expr $f1*$f1;
#X floatatom 13 64 5 0 0 0 - - -;
#X floatatom 13 119 5 0 0 0 - - -;
#X obj 13 90 expr pow($f1 \, 2);
#X obj 144 92 expr pow($f1 \, 2+$f1);
#X obj 286 91 expr 1-(pow(2 \, $f1));
#X connect 0 0 6 0;
#X connect 2 0 10 0;
#X connect 4 0 11 0;
#X connect 6 0 1 0;
#X connect 7 0 9 0;
#X connect 9 0 8 0;
#X connect 10 0 3 0;
#X connect 11 0 5 0;
