#N canvas 498 161 830 445 10;
#X msg 44 21 bang;
#X obj 101 21 bng 15 250 50 0 empty empty empty 17 7 0 10 -262144 -1
-1;
#X text 135 20 Son lo mismo;
#X obj 52 58 trigger bang bang;
#X obj 51 89 bng 15 250 50 0 empty empty empty 17 7 0 10 -262144 -1
-1;
#X obj 151 90 bng 15 250 50 0 empty empty empty 17 7 0 10 -262144 -1
-1;
#X obj 10 54 print;
#X obj 46 167 writesf~;
#X msg 47 119 open no_existe.wav;
#X msg 65 139 play;
#X msg 104 139 stop;
#X obj 182 113 pack f f;
#X obj 182 139 print;
#X msg 181 87 1;
#X obj 181 64 t b b;
#X obj 181 43 bng 15 250 50 0 empty empty empty 17 7 0 10 -262144 -1
-1;
#X msg 226 88 7;
#X obj 234 132 unpack f f;
#X floatatom 234 157 5 0 0 0 - - -;
#X floatatom 291 157 5 0 0 0 - - -;
#X msg 316 61 reemplazo \$1;
#X floatatom 316 35 5 0 0 0 - - -;
#X obj 316 88 print;
#X connect 0 0 3 0;
#X connect 0 0 6 0;
#X connect 1 0 3 0;
#X connect 1 0 6 0;
#X connect 3 0 4 0;
#X connect 3 1 5 0;
#X connect 8 0 7 0;
#X connect 9 0 7 0;
#X connect 10 0 7 0;
#X connect 11 0 12 0;
#X connect 11 0 17 0;
#X connect 13 0 11 0;
#X connect 14 0 13 0;
#X connect 14 1 16 0;
#X connect 15 0 14 0;
#X connect 16 0 11 1;
#X connect 17 0 18 0;
#X connect 17 1 19 0;
#X connect 20 0 22 0;
#X connect 21 0 20 0;
