#N canvas 774 57 639 318 10;
#X obj -103 67 == 2;
#X obj -44 67 >= 1;
#X obj 6 67 != 5;
#X floatatom -103 102 5 0 0 0 - - -;
#X floatatom -44 102 5 0 0 0 - - -;
#X floatatom 6 102 5 0 0 0 - - -;
#X obj 54 68 < 20;
#X floatatom 55 101 5 0 0 0 - - -;
#X floatatom -16 24 5 0 0 0 - - -;
#X obj -104 127 bng 15 250 50 0 empty empty empty 17 7 0 10 -262144
-1 -1;
#X obj -44 128 bng 15 250 50 0 empty empty empty 17 7 0 10 -262144
-1 -1;
#X obj 5 129 bng 15 250 50 0 empty empty empty 17 7 0 10 -262144 -1
-1;
#X obj 55 127 bng 15 250 50 0 empty empty empty 17 7 0 10 -262144 -1
-1;
#X obj 27 218 log 10;
#X obj 77 219 log 100;
#X floatatom 26 176 5 0 0 0 - - -;
#X obj -44 178 bng 15 250 50 0 empty empty empty 17 7 0 10 -262144
-1 -1;
#X floatatom -24 244 7 0 0 0 - - -;
#X floatatom 28 244 7 0 0 0 - - -;
#X floatatom 78 244 7 0 0 0 - - -;
#X obj -24 218 log 0.5;
#X obj 128 81 random 10;
#X obj 128 59 bng 15 250 50 0 empty empty empty 17 7 0 10 -262144 -1
-1;
#X floatatom 128 106 5 0 0 0 - - -;
#X obj 206 26 bng 15 250 50 0 empty empty empty 17 7 0 10 -262144 -1
-1;
#X obj 206 49 random 500;
#X obj 206 102 osc~;
#X obj 206 130 dac~;
#X floatatom 206 75 5 0 0 0 - - -;
#X connect 0 0 3 0;
#X connect 1 0 4 0;
#X connect 2 0 5 0;
#X connect 3 0 9 0;
#X connect 4 0 10 0;
#X connect 5 0 11 0;
#X connect 6 0 7 0;
#X connect 7 0 12 0;
#X connect 8 0 0 0;
#X connect 8 0 1 0;
#X connect 8 0 2 0;
#X connect 8 0 6 0;
#X connect 13 0 18 0;
#X connect 14 0 19 0;
#X connect 15 0 13 0;
#X connect 15 0 14 0;
#X connect 15 0 20 0;
#X connect 16 0 13 0;
#X connect 16 0 14 0;
#X connect 16 0 20 0;
#X connect 20 0 17 0;
#X connect 21 0 23 0;
#X connect 22 0 21 0;
#X connect 24 0 25 0;
#X connect 25 0 28 0;
#X connect 26 0 27 0;
#X connect 26 0 27 1;
#X connect 28 0 26 0;
