#N canvas 702 90 673 443 10;
#X obj 119 67 random 2000;
#X obj 119 38 metro 500;
#X obj 119 12 tgl 15 0 empty empty empty 17 7 0 10 -262144 -1 -1 1
1;
#X obj 120 122 osc~;
#X obj 119 158 dac~;
#X obj 119 93 + 400;
#X connect 0 0 5 0;
#X connect 1 0 0 0;
#X connect 2 0 1 0;
#X connect 3 0 4 0;
#X connect 3 0 4 1;
#X connect 5 0 3 0;
