#N canvas -163 122 973 526 12;
#X obj 44 67 grapher~;
#X obj 45 27 osc~ 100;
#X obj 363 93 grapher~;
#X obj 571 277 dac~;
#X obj 313 49 *~ 2;
#X obj 316 85 -~ 1;
#X obj 310 20 phasor~ 300;
#X obj 633 91 grapher~;
#X obj 628 45 +~;
#X obj 563 10 phasor~ 100;
#X obj 675 35 phasor~ -100;
#X msg 678 7 0;
#X msg 716 7 0.2;
#X msg 754 7 0.5;
#X obj 805 8 hsl 30 19 0 1 0 0 empty empty empty -2 -10 0 12 #fcfcfc #000000 #000000 0 1;
#X floatatom 801 37 5 0 0 0 - - - 0;
#X obj 625 68 -~ 0.5;
#X obj 926 32 phasor~ 200;
#X obj 1140 243;
#X obj 929 61 *~ 2;
#X obj 928 95 clip~ 0 1;
#X obj 925 228 grapher~;
#X obj 1044 62 *~ 2;
#X obj 1043 96 clip~ 0 1;
#X obj 1041 33 phasor~ -200;
#X obj 998 131 +~;
#X msg 1022 4 0;
#X obj 997 166 -~ 1;
#X connect 1 0 0 0;
#X connect 4 0 5 0;
#X connect 5 0 2 0;
#X connect 6 0 4 0;
#X connect 8 0 16 0;
#X connect 9 0 8 0;
#X connect 10 0 8 1;
#X connect 11 0 10 1;
#X connect 12 0 10 1;
#X connect 13 0 10 1;
#X connect 14 0 10 1;
#X connect 14 0 15 0;
#X connect 16 0 7 0;
#X connect 16 0 3 0;
#X connect 17 0 19 0;
#X connect 19 0 20 0;
#X connect 20 0 25 0;
#X connect 22 0 23 0;
#X connect 23 0 25 1;
#X connect 24 0 22 0;
#X connect 25 0 27 0;
#X connect 26 0 17 1;
#X connect 26 0 24 1;
#X connect 27 0 21 0;
