#N canvas 423 219 973 526 12;
#X obj 44 67 grapher~;
#X obj 45 27 osc~ 100;
#X obj 363 93 grapher~;
#X obj 596 81 dac~;
#X obj 313 49 *~ 2;
#X obj 316 85 -~ 1;
#X obj 310 20 phasor~ 300;
#X obj 633 91 grapher~;
#X obj 923 100 grapher~;
#X obj 923 66 striangle~;
#X obj 923 27 hsl 162 19 0 1000 0 0 empty empty empty -2 -10 0 12 #fcfcfc #000000 #000000 0 1;
#X obj 633 46 ssquare~;
#X obj 638 19 hsl 162 19 0 1000 0 0 empty empty empty -2 -10 0 12 #fcfcfc #000000 #000000 0 1;
#X connect 1 0 0 0;
#X connect 4 0 5 0;
#X connect 5 0 2 0;
#X connect 6 0 4 0;
#X connect 9 0 8 0;
#X connect 10 0 9 0;
#X connect 11 0 7 0;
#X connect 12 0 11 0;
