#N canvas 600 127 718 367 10;
#X obj 91 58 f 0;
#X obj 93 114 + 1;
#X floatatom 95 150 5 0 0 0 - - -;
#X obj 91 33 bng 15 250 50 0 empty empty empty 17 7 0 10 -262144 -1
-1;
#X obj 167 87 f -1;
#X obj 221 85 f 1;
#X obj 169 64 bng 15 250 50 0 empty empty empty 17 7 0 10 -262144 -1
-1;
#X obj 219 60 bng 15 250 50 0 empty empty empty 17 7 0 10 -262144 -1
-1;
#X obj 176 37 select 10 0;
#X obj 20 146 send count;
#X obj 131 11 receive count;
#X obj 182 141 hradio 15 1 0 0 empty empty empty 0 -8 0 10 -262144
-1 -1 0;
#X obj 159 163 hradio 15 1 0 11 empty empty empty 0 -8 0 10 -262144
-1 -1 2;
#X obj 11 26 metro 100;
#X obj 11 1 tgl 15 0 empty empty empty 17 7 0 10 -262144 -1 -1 0 1
;
#X msg 77 4 5;
#X connect 0 0 1 0;
#X connect 1 0 2 0;
#X connect 1 0 12 0;
#X connect 1 0 9 0;
#X connect 3 0 0 0;
#X connect 4 0 1 1;
#X connect 5 0 1 1;
#X connect 6 0 4 0;
#X connect 7 0 5 0;
#X connect 8 0 6 0;
#X connect 8 1 7 0;
#X connect 10 0 0 1;
#X connect 10 0 8 0;
#X connect 13 0 0 0;
#X connect 14 0 13 0;
#X connect 15 0 0 0;
