#N canvas 691 36 718 367 10;
#X obj 98 64 osc~;
#X obj 175 66 osc~;
#X obj 98 34 f 440;
#X obj 174 34 f 840;
#X msg 135 6 bang;
#X obj 133 104 +~;
#X obj 221 13 grapher~;
#X obj 470 11 grapher~;
#X obj 295 198 grapher~;
#X obj 133 129 /~ 2;
#X obj 128 163 dac~;
#X connect 0 0 5 0;
#X connect 0 0 6 0;
#X connect 1 0 5 1;
#X connect 1 0 7 0;
#X connect 2 0 0 0;
#X connect 3 0 1 0;
#X connect 4 0 2 0;
#X connect 4 0 3 0;
#X connect 5 0 9 0;
#X connect 9 0 8 0;
#X connect 9 0 10 0;
#X connect 9 0 10 1;
