#N canvas 691 36 718 397 10;
#X obj 66 145 osc~;
#X obj 135 145 osc~;
#X obj 66 72 mtof;
#X obj 67 51 hsl 128 15 0 127 0 0 empty empty empty -2 -8 0 10 -262144
-1 -1 5350 1;
#X floatatom 66 93 8 0 0 0 - - -;
#X obj 66 112 f;
#X obj 135 123 f;
#X obj 135 103 * 2;
#X obj 109 151 vsl 15 50 0 1 0 0 empty empty empty 0 -9 0 10 -262144
-1 -1 4650 1;
#X obj 67 213 *~;
#X obj 173 150 vsl 15 50 0 1 0 0 empty empty empty 0 -9 0 10 -262144
-1 -1 4950 1;
#X obj 135 213 *~;
#X text 355 378 comment;
#X obj 68 238 +~;
#X obj 69 313 /~;
#X obj 108 286 +;
#X obj 162 255 t b f;
#X floatatom 109 309 5 0 0 0 - - -;
#X obj 69 350 dac~;
#X obj 250 151 vsl 15 50 0 1 0 0 empty empty empty 0 -9 0 10 -262144
-1 -1 4950 1;
#X obj 214 294 +;
#X obj 244 255 t b f;
#X obj 207 145 osc~;
#X obj 207 123 f;
#X obj 207 103 * 2;
#X obj 209 213 *~;
#X obj 134 237 +~;
#X obj 327 151 vsl 15 50 0 1 0 0 empty empty empty 0 -9 0 10 -262144
-1 -1 4950 1;
#X obj 292 295 +;
#X obj 320 255 t b f;
#X obj 284 145 osc~;
#X obj 284 123 f;
#X obj 284 103 * 2;
#X obj 286 213 *~;
#X obj 211 238 +~;
#X obj 399 151 vsl 15 50 0 1 0 0 empty empty empty 0 -9 0 10 -262144
-1 -1 4950 1;
#X obj 363 296 +;
#X obj 395 257 t b f;
#X obj 356 146 osc~;
#X obj 356 124 f;
#X obj 356 104 * 2;
#X obj 358 214 *~;
#X obj 292 241 +~;
#X connect 0 0 9 0;
#X connect 1 0 11 0;
#X connect 2 0 4 0;
#X connect 3 0 2 0;
#X connect 4 0 5 0;
#X connect 5 0 0 0;
#X connect 5 0 7 0;
#X connect 6 0 1 0;
#X connect 7 0 6 0;
#X connect 7 0 24 0;
#X connect 8 0 9 1;
#X connect 8 0 15 0;
#X connect 9 0 13 0;
#X connect 10 0 11 1;
#X connect 10 0 20 0;
#X connect 11 0 26 0;
#X connect 13 0 14 0;
#X connect 14 0 18 0;
#X connect 14 0 18 1;
#X connect 15 0 17 0;
#X connect 16 0 15 0;
#X connect 16 1 15 1;
#X connect 17 0 14 1;
#X connect 19 0 25 1;
#X connect 19 0 28 0;
#X connect 20 0 16 0;
#X connect 21 0 20 0;
#X connect 21 1 20 1;
#X connect 22 0 25 0;
#X connect 23 0 22 0;
#X connect 24 0 23 0;
#X connect 24 0 32 0;
#X connect 25 0 34 0;
#X connect 26 0 13 1;
#X connect 27 0 33 1;
#X connect 27 0 36 0;
#X connect 28 0 21 0;
#X connect 29 0 28 0;
#X connect 29 1 28 1;
#X connect 30 0 33 0;
#X connect 31 0 30 0;
#X connect 32 0 31 0;
#X connect 32 0 40 0;
#X connect 33 0 42 0;
#X connect 34 0 26 1;
#X connect 35 0 41 1;
#X connect 35 0 37 0;
#X connect 36 0 29 0;
#X connect 37 0 36 0;
#X connect 37 1 36 1;
#X connect 38 0 41 0;
#X connect 39 0 38 0;
#X connect 40 0 39 0;
#X connect 41 0 42 1;
#X connect 42 0 34 1;
