#N canvas 310 123 862 526 10;
#X obj 273 37 packOSC;
#X obj 115 42 udpreceive 10002;
#X text 269 62 mrpeach;
#X obj 113 96 unpackOSC;
#X obj 56 136 routeOSC /tecla/c;
#X obj 53 167 print;
#X obj 174 135 routeOSC /tecla/v;
#X floatatom 175 167 20 0 0 0 - - -;
#X obj 314 133 routeOSC /tecla/b;
#X floatatom 317 164 10 0 0 0 - - -;
#X obj 316 186 osc~;
#X obj 316 207 *~;
#X obj 316 227 dac~;
#X obj 371 187 hsl 20 15 0 1 0 0 empty empty empty -2 -8 0 10 -262144
-1 -1 646 1;
#X obj 451 135 routeOSC /volume;
#X obj 561 214;
#X floatatom 451 165 10 0 0 0 - - -;
#X connect 1 0 3 0;
#X connect 3 0 4 0;
#X connect 3 0 6 0;
#X connect 3 0 8 0;
#X connect 3 0 14 0;
#X connect 4 0 5 0;
#X connect 6 0 7 0;
#X connect 8 0 9 0;
#X connect 9 0 10 0;
#X connect 10 0 11 0;
#X connect 11 0 12 0;
#X connect 11 0 12 1;
#X connect 13 0 11 1;
#X connect 14 0 16 0;
#X connect 16 0 13 0;
