#N canvas 375 36 497 269 10;
#X obj 29 110 dac~;
#X obj 35 80 *~ 1;
#X obj 117 42 vsl 15 30 0 1 0 0 empty empty empty 0 -9 0 10 -262144
-1 -1 0 1;
#X obj 35 43 osc~ 500;
#X obj 38 11 hsl 128 15 0 10000 0 0 empty empty empty -2 -8 0 10 -262144
-1 -1 0 1;
#X text 140 44 0-1;
#X text 174 10 0 - 10000;
#X connect 1 0 0 0;
#X connect 1 0 0 1;
#X connect 2 0 1 1;
#X connect 3 0 1 0;
#X connect 4 0 3 0;
