#N canvas 644 417 628 348 10;
#X obj 109 88 +, f 6;
#X floatatom 110 118 5 0 0 0 - - - 0;
#X floatatom 45 15 5 0 0 0 - - - 0;
#X floatatom 166 7 5 0 0 0 - - - 0;
#X msg 111 35 bang;
#X obj 112 60 bng 16 250 50 0 empty empty empty 0 -8 0 10 #fcfcfc #000000 #000000;
#X connect 0 0 1 0;
#X connect 2 0 0 0;
#X connect 3 0 0 1;
#X connect 3 0 4 0;
#X connect 4 0 5 0;
#X connect 5 0 0 0;
