#N canvas 4 157 628 348 12;
#X obj 119 86 osc~;
#X msg 59 20 500;
#X msg 118 21 1000;
#X msg 177 21 1500;
#X obj 121 117 *~;
#X obj 121 150 dac~;
#X msg 226 48 0;
#X msg 228 102 1;
#X msg 228 74 0.5;
#X floatatom 118 57 5 0 0 0 - - - 0;
#X floatatom 169 99 5 0 0 0 - - - 0;
#X msg 14 56 8.92374e+11;
#X connect 0 0 4 0;
#X connect 1 0 9 0;
#X connect 2 0 9 0;
#X connect 3 0 9 0;
#X connect 4 0 5 0;
#X connect 4 0 5 1;
#X connect 6 0 10 0;
#X connect 7 0 10 0;
#X connect 8 0 10 0;
#X connect 9 0 0 0;
#X connect 10 0 4 1;
#X connect 11 0 9 0;
