#N canvas 699 44 669 382 10;
#X obj 50 55 +;
#X floatatom 50 84 5 0 0 0 - - -;
#X msg 110 8 3;
#X msg 159 7 5;
#X obj 50 104 print;
#X obj 94 55 -;
#X obj 136 55 *;
#X obj 184 54 /;
#X obj 230 53 pow;
#X floatatom 95 86 5 0 0 0 - - -;
#X obj 95 103 print;
#X floatatom 138 85 5 0 0 0 - - -;
#X obj 138 102 print;
#X floatatom 185 86 5 0 0 0 - - -;
#X obj 185 103 print;
#X floatatom 230 86 5 0 0 0 - - -;
#X obj 230 103 print;
#X connect 0 0 1 0;
#X connect 1 0 4 0;
#X connect 2 0 0 0;
#X connect 2 0 5 0;
#X connect 2 0 6 0;
#X connect 2 0 7 0;
#X connect 2 0 8 0;
#X connect 3 0 0 1;
#X connect 3 0 8 1;
#X connect 3 0 7 1;
#X connect 3 0 6 1;
#X connect 3 0 5 1;
#X connect 5 0 9 0;
#X connect 6 0 11 0;
#X connect 7 0 13 0;
#X connect 8 0 15 0;
#X connect 9 0 10 0;
#X connect 11 0 12 0;
#X connect 13 0 14 0;
#X connect 15 0 16 0;
