#N canvas 498 90 833 562 10;
#X obj 75 131 soundfiler;
#X msg 75 106 read -resize CumbiaSampuesana.wav song;
#N canvas 0 22 450 278 (subpatch) 0;
#X array song 1.11941e+07 float 2;
#X coords 0 1 1.11941e+07 -1 200 140 1;
#X restore 371 13 graph;
#X obj 272 213 tabplay~ song;
#X obj 268 243 dac~;
#X msg 226 173 stop;
#X obj 277 173 bng 15 250 50 0 empty empty empty 17 7 0 10 -262144
-1 -1;
#X obj 132 158 print;
#X floatatom 77 201 5 0 0 0 - - -;
#X obj 77 219 expr 1/$f1;
#X obj 77 178 expr $f1/44100;
#X obj 43 264 phasor~;
#X obj 44 244 *;
#X obj 26 107 vsl 15 80 0 2 0 0 empty empty empty 0 -9 0 10 -262144
-1 -1 3012 1;
#X floatatom 22 216 5 0 0 0 - - -;
#X obj 43 289 *~;
#X obj 43 312 tabread4~ song;
#X obj 36 354 dac~;
#X obj 74 78 loadbang;
#X obj 48 6 udpreceive 10002;
#X obj 48 28 unpackOSC;
#X obj 177 52 routeOSC /volume;
#X obj 29 52 routeOSC /pitch;
#X obj 180 248 vsl 15 80 0 1 0 0 empty empty empty 0 -9 0 10 -262144
-1 -1 6024 1;
#X obj 43 334 *~;
#X obj 131 74 print;
#X connect 0 0 7 0;
#X connect 0 0 10 0;
#X connect 0 0 15 1;
#X connect 1 0 0 0;
#X connect 3 0 4 0;
#X connect 3 0 4 1;
#X connect 5 0 3 0;
#X connect 6 0 3 0;
#X connect 8 0 9 0;
#X connect 9 0 12 1;
#X connect 10 0 8 0;
#X connect 11 0 15 0;
#X connect 12 0 11 0;
#X connect 13 0 14 0;
#X connect 14 0 12 0;
#X connect 15 0 16 0;
#X connect 16 0 24 0;
#X connect 18 0 1 0;
#X connect 18 0 13 0;
#X connect 19 0 20 0;
#X connect 20 0 21 0;
#X connect 20 0 22 0;
#X connect 20 0 25 0;
#X connect 21 0 23 0;
#X connect 22 0 13 0;
#X connect 23 0 24 1;
#X connect 24 0 17 0;
#X connect 24 0 17 1;
