#N canvas 535 44 833 499 10;
#X obj 39 40 soundfiler;
#X msg 39 15 read -resize CumbiaSampuesana.wav song;
#N canvas 0 22 450 278 (subpatch) 0;
#X array song 1.11941e+07 float 2;
#X coords 0 1 1.11941e+07 -1 200 140 1;
#X restore 371 13 graph;
#X obj 264 89 tabplay~ song;
#X obj 260 119 dac~;
#X msg 218 49 stop;
#X obj 269 49 bng 15 250 50 0 empty empty empty 17 7 0 10 -262144 -1
-1;
#X obj 96 67 print;
#X floatatom 41 110 5 0 0 0 - - -;
#X obj 41 128 expr 1/$f1;
#X obj 41 87 expr $f1/44100;
#X obj 7 173 phasor~;
#X obj 8 153 *;
#X obj -15 35 vsl 15 80 0 1 0 0 empty empty empty 0 -9 0 10 -262144
-1 -1 7950 1;
#X floatatom -14 125 5 0 0 0 - - -;
#X obj 7 198 *~;
#X obj 7 221 tabread4~ song;
#X obj 8 245 dac~;
#X connect 0 0 7 0;
#X connect 0 0 10 0;
#X connect 0 0 15 1;
#X connect 1 0 0 0;
#X connect 3 0 4 0;
#X connect 3 0 4 1;
#X connect 5 0 3 0;
#X connect 6 0 3 0;
#X connect 8 0 9 0;
#X connect 9 0 12 1;
#X connect 10 0 8 0;
#X connect 11 0 15 0;
#X connect 12 0 11 0;
#X connect 13 0 14 0;
#X connect 14 0 12 0;
#X connect 15 0 16 0;
#X connect 16 0 17 0;
#X connect 16 0 17 1;
