#N canvas 419 30 973 652 12;
#X obj 44 67 grapher~;
#X obj 45 27 osc~ 100;
#X obj 363 93 grapher~;
#X obj 596 81 dac~;
#X obj 313 49 *~ 2;
#X obj 316 85 -~ 1;
#X obj 310 20 phasor~ 300;
#X obj 633 91 grapher~;
#X obj 923 130 grapher~;
#X obj 923 66 striangle~;
#X obj 923 27 hsl 162 19 0 1000 0 0 empty empty empty -2 -10 0 12 #fcfcfc #000000 #000000 0 1;
#X obj 633 46 ssquare~;
#X obj 638 19 hsl 162 19 0 1000 0 0 empty empty empty -2 -10 0 12 #fcfcfc #000000 #000000 0 1;
#X obj 114 447 vline~;
#X obj 114 480 snapshot~;
#X floatatom 114 507 5 0 0 0 - - - 0;
#X obj 413 765;
#X obj 29 419 tgl 19 0 empty empty empty 0 -10 0 12 #fcfcfc #000000 #000000 0 1;
#X obj 29 449 metro 50;
#X msg 114 394 0.5 500;
#X msg 190 416 0 500;
#X floatatom 299 327 5 0 0 0 - - - 0;
#X floatatom 415 411 5 0 0 0 - - - 0;
#X obj 353 481 vline~;
#X obj 353 514 snapshot~;
#X floatatom 353 541 5 0 0 0 - - - 0;
#X obj 268 453 tgl 19 0 empty empty empty 0 -10 0 12 #fcfcfc #000000 #000000 0 1;
#X obj 268 483 metro 50;
#X obj 348 355 delay;
#X obj 352 382 bng 19 250 50 0 empty empty empty 0 -10 0 12 #fcfcfc #000000 #000000;
#X obj 300 297 bng 19 250 50 0 empty empty empty 0 -10 0 12 #fcfcfc #000000 #000000;
#X msg 414 437 0 \$1;
#X obj 267 554 *~;
#X obj 262 595 dac~;
#X obj 167 514 r~ square;
#X obj 723 67 s~ square;
#X obj 976 97 s~ triangle;
#X obj 240 512 r~ triangle;
#X floatatom 535 328 5 0 0 0 - - - 0;
#X floatatom 585 412 5 0 0 0 - - - 0;
#X obj 589 552 vline~;
#X obj 589 585 snapshot~;
#X floatatom 589 612 5 0 0 0 - - - 0;
#X obj 504 554 metro 50;
#X obj 585 356 delay;
#X obj 585 383 bng 19 250 50 0 empty empty empty 0 -10 0 12 #fcfcfc #000000 #000000;
#X obj 480 357 bng 19 250 50 0 empty empty empty 0 -10 0 12 #fcfcfc #000000 #000000;
#X msg 536 522 1 \$1;
#X obj 555 430 +;
#X floatatom 644 495 5 0 0 0 - - - 0;
#X obj 644 439 delay;
#X obj 644 466 bng 19 250 50 0 empty empty empty 0 -10 0 12 #fcfcfc #000000 #000000;
#X msg 586 522 0.2 \$1;
#X obj 504 512 tgl 19 0 empty empty empty 0 -10 0 12 #fcfcfc #000000 #000000 0 1;
#X msg 645 522 0.2 \$1;
#X obj 494 627 *~;
#X obj 489 668 dac~;
#X obj 467 585 r~ triangle;
#X msg 302 434 0.8 \$1;
#X obj 773 558 vline~;
#X obj 704 560 metro 50;
#X obj 704 518 tgl 19 0 empty empty empty 0 -10 0 12 #fcfcfc #000000 #000000 0 1;
#X obj 772 599 snapshot~;
#X floatatom 772 626 5 0 0 0 - - - 0;
#X obj 699 632 *~;
#X obj 694 673 dac~;
#X msg 775 518 1 550 \, 0.5 500 550 \, 0.2 100 1050 \, 0 100 1150;
#X obj 672 590 r~ square;
#X obj 162 253 tgl 19 0 empty empty empty 0 -10 0 12 #fcfcfc #000000 #000000 0 1;
#X obj 167 285 metro 500;
#X obj 17 17;
#X obj 17 40;
#X obj 239 255 random 500;
#X obj 295 213 bng 19 250 50 0 empty empty empty 0 -10 0 12 #fcfcfc #000000 #000000;
#X connect 1 0 0 0;
#X connect 4 0 5 0;
#X connect 5 0 2 0;
#X connect 6 0 4 0;
#X connect 9 0 8 0;
#X connect 9 0 36 0;
#X connect 10 0 9 0;
#X connect 11 0 7 0;
#X connect 11 0 35 0;
#X connect 12 0 11 0;
#X connect 13 0 14 0;
#X connect 14 0 15 0;
#X connect 17 0 18 0;
#X connect 18 0 14 0;
#X connect 19 0 13 0;
#X connect 20 0 13 0;
#X connect 21 0 58 0;
#X connect 21 0 28 0;
#X connect 22 0 31 0;
#X connect 23 0 24 0;
#X connect 23 0 32 1;
#X connect 24 0 25 0;
#X connect 26 0 27 0;
#X connect 27 0 24 0;
#X connect 28 0 29 0;
#X connect 29 0 22 0;
#X connect 30 0 21 0;
#X connect 31 0 23 0;
#X connect 32 0 33 0;
#X connect 32 0 33 1;
#X connect 37 0 32 0;
#X connect 38 0 47 0;
#X connect 38 0 44 0;
#X connect 38 0 48 0;
#X connect 39 0 52 0;
#X connect 39 0 48 1;
#X connect 40 0 41 0;
#X connect 40 0 55 1;
#X connect 41 0 42 0;
#X connect 43 0 41 0;
#X connect 44 0 45 0;
#X connect 45 0 39 0;
#X connect 46 0 38 0;
#X connect 47 0 40 0;
#X connect 48 0 50 0;
#X connect 49 0 54 0;
#X connect 50 0 51 0;
#X connect 51 0 49 0;
#X connect 52 0 40 0;
#X connect 53 0 43 0;
#X connect 54 0 40 0;
#X connect 55 0 56 0;
#X connect 55 0 56 1;
#X connect 58 0 23 0;
#X connect 59 0 62 0;
#X connect 59 0 64 1;
#X connect 60 0 62 0;
#X connect 61 0 60 0;
#X connect 62 0 63 0;
#X connect 64 0 65 0;
#X connect 64 0 65 1;
#X connect 66 0 59 0;
#X connect 67 0 64 0;
#X connect 68 0 69 0;
#X connect 69 0 30 0;
#X connect 70 0 71 0;
#X connect 72 0 69 1;
#X connect 73 0 72 0;
