#N canvas 1 317 450 300 12;
#X obj 127 137 +~;
#X obj 71 92 phasor~ 100;
#X obj 177 91 phasor~ -100;
#X msg 258 41 0.75;
#X msg 144 44 0;
#X obj 72 14 inlet;
#X obj 100 44 * -1;
#X obj 127 198 outlet~;
#X obj 200 12 loadbang;
#X obj 127 167 -~ 1;
#X connect 0 0 9 0;
#X connect 1 0 0 0;
#X connect 2 0 0 1;
#X connect 3 0 2 1;
#X connect 4 0 1 1;
#X connect 5 0 1 0;
#X connect 5 0 6 0;
#X connect 6 0 2 0;
#X connect 8 0 4 0;
#X connect 8 0 3 0;
#X connect 9 0 7 0;
