#N canvas 802 231 450 300 12;
#X obj 59 83 phasor~ 200;
#X obj 62 112 *~ 2;
#X obj 61 146 clip~ 0 1;
#X obj 201 113 *~ 2;
#X obj 200 147 clip~ 0 1;
#X obj 198 84 phasor~ -200;
#X obj 156 205 +~;
#X msg 198 51 0;
#X obj 155 240 -~ 1;
#X obj 198 17 loadbang;
#X obj 64 18 inlet;
#X obj 154 274 outlet~;
#X obj 160 38 bng 19 250 50 0 empty empty empty 0 -10 0 12 #fcfcfc #000000 #000000;
#X obj 98 50 * -1;
#X connect 0 0 1 0;
#X connect 1 0 2 0;
#X connect 2 0 6 0;
#X connect 3 0 4 0;
#X connect 4 0 6 1;
#X connect 5 0 3 0;
#X connect 6 0 8 0;
#X connect 7 0 0 1;
#X connect 7 0 5 1;
#X connect 8 0 11 0;
#X connect 9 0 7 0;
#X connect 10 0 0 0;
#X connect 10 0 12 0;
#X connect 10 0 13 0;
#X connect 12 0 7 0;
#X connect 13 0 5 0;
